<?xml version="1.0" encoding="UTF-8" standalone="no"?>
<svg
   xmlns:dc="http://purl.org/dc/elements/1.1/"
   xmlns:cc="http://creativecommons.org/ns#"
   xmlns:rdf="http://www.w3.org/1999/02/22-rdf-syntax-ns#"
   xmlns:svg="http://www.w3.org/2000/svg"
   xmlns="http://www.w3.org/2000/svg"
   xmlns:sodipodi="http://sodipodi.sourceforge.net/DTD/sodipodi-0.dtd"
   xmlns:inkscape="http://www.inkscape.org/namespaces/inkscape"
   viewBox="0 0 206.33101 149.44495"
   version="1.1"
   id="svg1100"
   sodipodi:docname="hodi-with-transparent-connector-colour-1.svg"
   width="206.33101"
   height="149.44495"
   inkscape:version="1.0.2 (e86c8708, 2021-01-15)">
  <metadata
     id="metadata1106">
    <rdf:RDF>
      <cc:Work
         rdf:about="">
        <dc:format>image/svg+xml</dc:format>
        <dc:type
           rdf:resource="http://purl.org/dc/dcmitype/StillImage" />
      </cc:Work>
    </rdf:RDF>
  </metadata>
  <defs
     id="defs1104" />
  <sodipodi:namedview
     pagecolor="#ffffff"
     bordercolor="#666666"
     borderopacity="1"
     objecttolerance="10"
     gridtolerance="10"
     guidetolerance="10"
     inkscape:pageopacity="0"
     inkscape:pageshadow="2"
     inkscape:window-width="1440"
     inkscape:window-height="847"
     id="namedview1102"
     showgrid="false"
     inkscape:zoom="1.1204886"
     inkscape:cx="17.824569"
     inkscape:cy="-82.445127"
     inkscape:window-x="0"
     inkscape:window-y="25"
     inkscape:window-maximized="0"
     inkscape:current-layer="svg1100" />
  <title
     id="title1082">Hodi Colour Options3ii</title>
  <path
     d="m 89.536,99.092942 c 4.811,0 8.875,3.764998 8.875,8.220998 v 15.167 c 0,4.457 -4.064,8.221 -8.875,8.221 -4.811,0 -8.872,-3.764 -8.872,-8.221 v -15.167 c 0,-4.456 4.064,-8.220998 8.874,-8.220998 m 0,-18.743 v 0 c -16.008,0 -29.106,12.134 -29.106,26.963998 v 15.167 c 0,14.831 13.1,26.964 29.106,26.964 v 0 c 16.009,0 29.106,-12.133 29.106,-26.964 v -15.167 c 0,-14.829998 -13.1,-26.963998 -29.106,-26.963998 z"
     fill="#310a31"
     id="path1086" />
  <path
     d="m 178.102,51.253942 a 5.1,5.1 0 0 0 -5.1,-5.1 h -9.255 a 5.1,5.1 0 0 0 -5.1,5.1 v 26.618 H 150.13 A 28.013,28.013 0 0 0 122.2,105.80294 v 15.711 a 28.013,28.013 0 0 0 27.93,27.931 h 20.574 a 7.326,7.326 0 0 0 7.326,-7.326 v -19.22 a 5.069,5.069 0 0 0 0.075,-0.744 z m -19.49,70.663998 v 8.113 h -8.484 a 8.63,8.63 0 0 1 -8.516,-8.516 v -15.712 a 8.629,8.629 0 0 1 8.515,-8.515998 h 8.485 v 8.111998 0.221 q 0.008,0.349 0.027,0.7 v 14.687 c -0.013,0.233 -0.022,0.463 -0.027,0.695 z"
     fill="#310a31"
     id="path1088" />
  <path
     d="m 50.877,63.330942 h -9.255 a 5.1,5.1 0 0 0 -5.1,5.1 v 25.319 H 19.455 v -25.319 a 5.1,5.1 0 0 0 -5.1,-5.1 H 5.1 a 5.1,5.1 0 0 0 -5.1,5.1 v 75.913998 a 5.1,5.1 0 0 0 5.1,5.1 h 9.255 a 5.1,5.1 0 0 0 5.1,-5.1 v -31.138 h 17.066 v 31.137 a 5.1,5.1 0 0 0 5.1,5.1 h 9.255 a 5.1,5.1 0 0 0 5.1,-5.1 V 68.430942 a 5.1,5.1 0 0 0 -5.099,-5.1 z"
     fill="#310a31"
     id="path1090" />
  <rect
     x="186.87302"
     y="90.015953"
     width="19.458"
     height="59.429001"
     rx="3.5079999"
     ry="3.5079999"
     fill="#310a31"
     id="rect1092" />
  <rect
     x="186.87302"
     y="60.89193"
     width="19.458"
     height="19.458"
     rx="3.5079999"
     ry="3.5079999"
     fill="#310a31"
     id="rect1094" />
  <path
     d="m 139.741,25.422942 a 20.941,20.941 0 0 0 -14.75,-6.141 21,21 0 0 0 -41.861,0.022 21.013,21.013 0 1 0 21.149,25.187 21.022,21.022 0 1 0 35.462,-19.068 z m -11.311,18.415 a 5.019,5.019 0 0 1 -7.69,-6.386 l -13.547,-12.516 a 4.989,4.989 0 0 1 -6.229,0.036 l -13.165,12.44 a 5.063,5.063 0 1 1 -1.008,-1.048 l 13.165,-12.441 a 5.014,5.014 0 1 1 8.237,-0.043 l 13.547,12.517 a 5.009,5.009 0 0 1 6.69,7.441 z"
     fill="#33658a"
     id="path1096" />
</svg>
