<?xml version="1.0" encoding="UTF-8" standalone="no"?>
<svg
   xmlns:dc="http://purl.org/dc/elements/1.1/"
   xmlns:cc="http://creativecommons.org/ns#"
   xmlns:rdf="http://www.w3.org/1999/02/22-rdf-syntax-ns#"
   xmlns:svg="http://www.w3.org/2000/svg"
   xmlns="http://www.w3.org/2000/svg"
   xmlns:sodipodi="http://sodipodi.sourceforge.net/DTD/sodipodi-0.dtd"
   xmlns:inkscape="http://www.inkscape.org/namespaces/inkscape"
   viewBox="0 0 500 500"
   version="1.1"
   id="svg1214"
   sodipodi:docname="Powerful-bro.svg"
   inkscape:version="1.0.2 (e86c8708, 2021-01-15)">
  <metadata
     id="metadata1220">
    <rdf:RDF>
      <cc:Work
         rdf:about="">
        <dc:format>image/svg+xml</dc:format>
        <dc:type
           rdf:resource="http://purl.org/dc/dcmitype/StillImage" />
      </cc:Work>
    </rdf:RDF>
  </metadata>
  <defs
     id="defs1218" />
  <sodipodi:namedview
     pagecolor="#ffffff"
     bordercolor="#666666"
     borderopacity="1"
     objecttolerance="10"
     gridtolerance="10"
     guidetolerance="10"
     inkscape:pageopacity="0"
     inkscape:pageshadow="2"
     inkscape:window-width="1440"
     inkscape:window-height="847"
     id="namedview1216"
     showgrid="false"
     inkscape:zoom="1.334"
     inkscape:cx="236.50675"
     inkscape:cy="250"
     inkscape:window-x="0"
     inkscape:window-y="25"
     inkscape:window-maximized="0"
     inkscape:current-layer="svg1214" />
  <g
     id="freepik--background-simple--inject-2">
    <path
       d="M390.41,101.85s-37.51-35.09-92-24.54-81.14,53.22-114.63,81.48c-17.53,14.8-41.65,19-61.81,29.93-64.46,34.92-64.41,123.63-21.11,160.14,37.48,31.61,87.64,38.17,155.46,21.57s116.1-26,163-83.94S436.22,149.13,390.41,101.85Z"
       style="fill:#33648A"
       id="path1115" />
    <path
       d="M390.41,101.85s-37.51-35.09-92-24.54-81.14,53.22-114.63,81.48c-17.53,14.8-41.65,19-61.81,29.93-64.46,34.92-64.41,123.63-21.11,160.14,37.48,31.61,87.64,38.17,155.46,21.57s116.1-26,163-83.94S436.22,149.13,390.41,101.85Z"
       style="fill:#fff;opacity:0.75"
       id="path1117" />
  </g>
  <g
     id="freepik--Clouds--inject-2">
    <path
       d="M409.62,190.79c-5.15-2.81-7.5-.46-9.37-2.81s5.15-8.43-8.91-14.53c0,0-.93-13.12-20.15-13.59S357.13,173,352,176.27s-6.57-1.88-11.72,1.4-2.81,9.84-7,10.78-9.84-4.22-15-.94-5.15,6.1-7.5,6.1-7-1.88-9.84,0-6.09,4.21-6.09,4.21H413.37S414.78,193.61,409.62,190.79Z"
       style="fill:#33648A"
       id="path1120" />
    <g
       style="opacity:0.5"
       id="g1124">
      <path
         d="M409.62,190.79c-5.15-2.81-7.5-.46-9.37-2.81s5.15-8.43-8.91-14.53c0,0-.93-13.12-20.15-13.59S357.13,173,352,176.27s-6.57-1.88-11.72,1.4-2.81,9.84-7,10.78-9.84-4.22-15-.94-5.15,6.1-7.5,6.1-7-1.88-9.84,0-6.09,4.21-6.09,4.21H413.37S414.78,193.61,409.62,190.79Z"
         style="fill:#fff"
         id="path1122" />
    </g>
    <path
       d="M332.39,331.8c-8.33-4.55-12.12-.76-15.14-4.55s8.32-13.63-14.39-23.47c0,0-1.52-21.2-32.56-22s-22.72,21.2-31.05,26.5-10.6-3-18.92,2.28S215.78,326.5,209,328s-15.9-6.81-24.23-1.51-8.33,9.84-12.12,9.84-11.36-3-15.9,0-9.84,6.82-9.84,6.82H338.45S340.72,336.34,332.39,331.8Z"
       style="fill:#33648A"
       id="path1126" />
    <g
       style="opacity:0.5"
       id="g1130">
      <path
         d="M332.39,331.8c-8.33-4.55-12.12-.76-15.14-4.55s8.32-13.63-14.39-23.47c0,0-1.52-21.2-32.56-22s-22.72,21.2-31.05,26.5-10.6-3-18.92,2.28S215.78,326.5,209,328s-15.9-6.81-24.23-1.51-8.33,9.84-12.12,9.84-11.36-3-15.9,0-9.84,6.82-9.84,6.82H338.45S340.72,336.34,332.39,331.8Z"
         style="fill:#fff"
         id="path1128" />
    </g>
    <path
       d="M147.79,243.65c-2.85-1.56-4.15-.26-5.19-1.56s2.85-4.67-4.93-8c0,0-.52-7.27-11.16-7.53s-7.78,7.27-10.63,9.08-3.64-1-6.49.78-1.56,5.45-3.89,6-5.45-2.33-8.3-.52S94.34,245.2,93,245.2s-3.89-1-5.44,0-3.38,2.34-3.38,2.34h65.65S150.64,245.2,147.79,243.65Z"
       style="fill:#33648A"
       id="path1132" />
    <g
       style="opacity:0.5"
       id="g1136">
      <path
         d="M147.79,243.65c-2.85-1.56-4.15-.26-5.19-1.56s2.85-4.67-4.93-8c0,0-.52-7.27-11.16-7.53s-7.78,7.27-10.63,9.08-3.64-1-6.49.78-1.56,5.45-3.89,6-5.45-2.33-8.3-.52S94.34,245.2,93,245.2s-3.89-1-5.44,0-3.38,2.34-3.38,2.34h65.65S150.64,245.2,147.79,243.65Z"
         style="fill:#fff"
         id="path1134" />
    </g>
  </g>
  <path
     d="m 322.81,391.25 c 0,3.95 -22.52,7.16 -50.3,7.16 -27.78,0 -50.29,-3.21 -50.29,-7.16 0,-3.95 22.52,-7.16 50.29,-7.16 27.77,0 50.3,3.21 50.3,7.16 z"
     style="fill:#33648a"
     id="path1139" />
  <path
     d="m 322.81,391.25 c 0,3.95 -22.52,7.16 -50.3,7.16 -27.78,0 -50.29,-3.21 -50.29,-7.16 0,-3.95 22.52,-7.16 50.29,-7.16 27.77,0 50.3,3.21 50.3,7.16 z"
     style="opacity:0.5;fill:#ffffff"
     id="path1141" />
  <path
     d="m 282.8,166.26 c 5.27,-1.12 9.12,-2.82 8.6,-7.65 -0.52,-4.83 -6.39,-8.05 -7,-10.52 -0.61,-2.47 3.44,-6.18 2.56,-10.9 -0.88,-4.72 -5.58,-10 -10.3,-9.16 0,0 -0.78,1.56 -1.55,-1.79 -0.77,-3.35 -3.29,-7.5 -7.93,-5.89 -4.87,1.69 -4.87,4.52 -6.3,5 A 122.69,122.69 0 0 0 249.29,131 c -3.75,2.07 -4.36,8.56 -4.92,10.83 -0.56,2.27 -2.35,2.81 -5,2.36 -2.65,-0.45 -5.42,-0.94 -6,1.66 -0.58,2.6 -0.88,5.1 -2.72,4.95 -1.84,-0.15 -3.9,-2.88 -5.32,-0.58 -1.42,2.3 -4.2,6.72 -7.18,5.36 -2.98,-1.36 -6.43,-6.87 -11.22,-4.65 -4.79,2.22 -5.7,8.5 -3.84,9.49 1.86,0.99 2.78,2.52 2.33,4.13 -0.45,1.61 -6.11,0.13 -7.89,3.55 -1.78,3.42 2.43,6.51 2.45,8.37 0.02,1.86 -1,3.56 -4.34,4.5 -3.34,0.94 -5.69,3.59 -3.46,5.33 2.23,1.74 1.93,-0.35 2.48,-1.6 0.55,-1.25 2.29,-1.47 4.31,-0.45 2.02,1.02 3.24,-1.13 3.24,-1.13 0,0 -0.29,2.66 2,3.39 2.29,0.73 2.66,3.17 0,3.89 -2.66,0.72 -4.5,4.47 -2.51,6.68 1.99,2.21 5.14,3.59 10.46,2.14 5.32,-1.45 16.79,-10 24.17,-5.64 7.38,4.36 20.59,4.24 27.08,2 6.49,-2.24 8.17,-9.09 13.28,-10.23 5.11,-1.14 3.75,-4.09 2.89,-7 -0.86,-2.91 -2.05,-10.97 3.22,-12.09 z m 3.71,-4.78 a 4.89,4.89 0 0 0 1.33,-2.81 2.28,2.28 0 0 1 0.8,3.18 c -1.05,2.19 -3.79,1.38 -3.79,1.38 z m -75.41,-4.4 c -1.15,-0.2 -3.56,4 -4.19,2.66 -0.63,-1.34 0.81,-6.63 3.39,-6.86 2.58,-0.23 5.29,4.64 5.29,4.64 -0.34,1.97 -3.34,-0.24 -4.49,-0.44 z m 55.56,-31.8 a 3.2,3.2 0 0 0 -2.61,0.4 3.14,3.14 0 0 1 3.56,-2.94 c 2.13,0.37 2.61,3.5 2.61,3.5 a 22.75,22.75 0 0 0 -3.56,-0.96 z"
     style="fill:#263238"
     id="path1143" />
  <path
     d="m 153.71,266.55 14.9,-7.18 a 14,14 0 0 1 0.06,6 c -0.64,3.73 -1.66,7.82 -5,7.75 -3.34,-0.07 -9.96,-6.57 -9.96,-6.57 z"
     style="fill:#263238;stroke:#263238;stroke-linecap:round;stroke-linejoin:round"
     id="path1145" />
  <path
     d="m 204.18,292.62 c 0,0 5.51,-13.32 6.67,-15.35 1.16,-2.03 9.59,-2.6 8.14,4.29 -1.45,6.89 -6.2,10.52 -9.21,11 a 18.43,18.43 0 0 1 -5.6,0.06 z"
     style="fill:#263238;stroke:#263238;stroke-linecap:round;stroke-linejoin:round"
     id="path1147" />
  <path
     d="m 134.22,210.46 a 21.36,21.36 0 0 0 -4.53,6 c -1.38,3.15 -3,7 -3,7 0,0 16.19,-14.24 25,-14.81 8.81,-0.57 11,-0.51 11,-0.51 0,0 -10.92,-5.09 -16.75,-3.53 a 37.65,37.65 0 0 0 -11.14,5.56 z"
     style="fill:#263238;stroke:#263238;stroke-linecap:round;stroke-linejoin:round"
     id="path1149" />
  <path
     d="m 250.08,186.89 c 0,0 -21.12,5.23 -42.21,9.45 -21.09,4.22 -41.33,-0.53 -53.07,2.55 -11.74,3.08 -20.58,11.57 -20.58,11.57 0,0 11.15,-6.76 18,-1 6.85,5.76 6.13,9.46 1.32,16.36 -4.81,6.9 -9,17.15 -1.77,21 7.23,3.85 14.3,17.3 14.24,20.3 -0.06,3 -1.06,3 -1.06,3 l -11.27,-3.57 c 0,0 6.38,14.14 20.67,16.11 14.29,1.97 21.41,-3.55 30.4,-3 8.99,0.55 8.49,8.51 8.49,8.51 0,0 -8.72,2.49 -9.09,4.48 -0.37,1.99 2.25,3.71 12.65,0.93 10.4,-2.78 15.57,-11 20.46,-5.9 4.89,5.1 7.79,9.83 13.13,9.94 5.34,0.11 8.79,-6.15 15.46,-21.68 6.67,-15.53 30.76,-36 31.8,-53.67 1.04,-17.67 -8.83,-39.87 -8.83,-39.87 z"
     style="fill:#f6ae2d;stroke:#263238;stroke-linecap:round;stroke-linejoin:round;fill-opacity:1"
     id="path1151" />
  <path
     d="m 243.25,194.42 c 0,0 -15.75,3.67 -28.25,11.41 -12.5,7.74 -36.55,9.9 -43.28,12.76 a 51.91,51.91 0 0 0 -9.78,5.13"
     style="fill:none;stroke:#263238;stroke-linecap:round;stroke-linejoin:round"
     id="path1153" />
  <path
     d="m 165,270.12 a 62,62 0 0 0 12.36,-17.41 68.12,68.12 0 0 1 27,-29.44 c 12.83,-7.4 19.17,-7.6 31,-15.35"
     style="fill:none;stroke:#263238;stroke-linecap:round;stroke-linejoin:round"
     id="path1155" />
  <path
     d="m 213.27,288.14 c 0,0 9,-29.82 16.18,-40"
     style="fill:none;stroke:#263238;stroke-linecap:round;stroke-linejoin:round"
     id="path1157" />
  <path
     d="m 238.49,357.35 a 55.41,55.41 0 0 1 -6.36,17.21 c -5.2,9.22 -6.59,11.86 -7.94,12.83 -1.35,0.97 -4.06,2.59 -1.4,3.31 2.66,0.72 10,0.87 12.67,-0.07 2.67,-0.94 2.39,-2.95 3.47,-6.59 a 5.08,5.08 0 0 1 4.08,-3.92 l -0.23,11 h 2 l 0.86,-9.32 c 0,0 1.41,-3.63 1.13,-6 -0.28,-2.37 -2.91,-4.4 -2.91,-4.4 l 3.29,-13.6 z"
     style="fill:#d9d9d9;stroke:#263238;stroke-linecap:round;stroke-linejoin:round"
     id="path1159" />
  <path
     d="m 244.78,391.16 0.86,-9.32 c 0,0 1.41,-3.63 1.13,-6 -0.22,-1.82 -1.84,-3.46 -2.56,-4.1 -2.17,2.7 -4.82,9.78 -8.63,12.86 a 10.9,10.9 0 0 1 -9.7,1.8 l -0.55,-0.24 a 5.56,5.56 0 0 1 -1.14,1.2 c -1.35,1 -4.06,2.59 -1.4,3.31 2.66,0.72 10,0.87 12.67,-0.07 2.67,-0.94 2.39,-2.95 3.47,-6.59 a 5.08,5.08 0 0 1 4.08,-3.92 l -0.23,11 z"
     style="fill:#263238;stroke:#263238;stroke-linecap:round;stroke-linejoin:round"
     id="path1161" />
  <path
     d="m 313.05,358.92 a 55.19,55.19 0 0 0 5.64,17.46 c 4.8,9.43 6.08,12.13 7.39,13.16 1.31,1.03 3.94,2.75 1.26,3.36 -2.68,0.61 -10,0.45 -12.65,-0.6 -2.65,-1.05 -2.27,-3.05 -3.2,-6.74 a 5.08,5.08 0 0 0 -3.91,-4.08 l -0.23,11 -2,-0.05 -0.47,-9.34 c 0,0 -1.26,-3.69 -0.88,-6 0.38,-2.31 3.09,-4.27 3.09,-4.27 l -2.71,-13.73 z"
     style="fill:#d9d9d9;stroke:#263238;stroke-linecap:round;stroke-linejoin:round"
     id="path1163" />
  <path
     d="m 305.35,392.43 -0.47,-9.34 c 0,0 -1.26,-3.69 -0.88,-6 0.3,-1.8 2,-3.37 2.74,-4 2.05,2.8 4.4,10 8.07,13.22 a 10.9,10.9 0 0 0 9.62,2.2 l 0.56,-0.21 a 5.5,5.5 0 0 0 1.09,1.25 c 1.31,1 3.94,2.75 1.26,3.36 -2.68,0.61 -10,0.45 -12.65,-0.6 -2.65,-1.05 -2.27,-3.05 -3.2,-6.74 a 5.08,5.08 0 0 0 -3.91,-4.08 l -0.23,11 z"
     style="fill:#263238;stroke:#263238;stroke-linecap:round;stroke-linejoin:round"
     id="path1165" />
  <path
     d="m 259.64,230.06 c 0,0 -13.81,31.76 -15.73,44.06 -1.92,12.3 -8.14,85.88 -8.14,85.88 l 13.32,0.62 19.79,-84.62 3.66,-15.6 30.82,103.67 11.36,-0.76 c 0,0 -12,-78.27 -16.63,-97 A 273.38,273.38 0 0 0 285.82,229.6 Z"
     style="fill:#263238;stroke:#263238;stroke-linecap:round;stroke-linejoin:round"
     id="path1167" />
  <path
     d="m 265.56,161.72 c 0,0 0.05,14.7 0,16.49 -0.05,1.79 -16.56,6.64 -16.56,6.64 l 10.69,45.21 c 0,0 14,1.19 26.18,-0.52 l 8,-48.22 -15,-3 0.6,-11.81 c 0,0 -9.47,-0.21 -13.91,-4.79 z"
     style="fill:#d9d9d9;stroke:#263238;stroke-linecap:round;stroke-linejoin:round"
     id="path1169" />
  <path
     d="m 284,179.35 c -1.09,4.09 -4.65,14.36 -12.84,13.32 -7.08,-0.9 -11.4,-7.88 -12.92,-10.82 -4.46,1.59 -9.31,3 -9.31,3 l 10.69,45.21 c 0,0 14,1.19 26.18,-0.52 l 8,-48.22 z"
     style="fill:#ffffff;stroke:#263238;stroke-linecap:round;stroke-linejoin:round"
     id="path1171" />
  <path
     d="m 261.24,179.56 c 0,0 4,21.77 5,34 1,12.23 1,20.63 0.78,22.24 -0.22,1.61 -11.15,44.39 -11.15,44.39 l -19,-8.29 19.17,-42.43 c 0,0 -11,-41.27 -10.93,-42.71 0.07,-1.44 16.13,-7.2 16.13,-7.2 z"
     style="fill:#707070;stroke:#263238;stroke-linecap:round;stroke-linejoin:round"
     id="path1173" />
  <path
     d="m 257.63,181.09 -1.78,16.45 4,3.14 -3,5.31 10,26 c 0,0 -0.09,-12.73 -0.81,-21.17 -0.72,-8.44 -4.9,-31.28 -4.9,-31.28 z"
     style="fill:none;stroke:#263238;stroke-linecap:round;stroke-linejoin:round"
     id="path1175" />
  <path
     d="m 281.16,178.54 c 0,0 -2.76,54.79 -2.78,55.32 -0.02,0.53 15,46.2 15,46.2 l 14.8,-4.71 -19.61,-47.54 c 0,0 9.36,-44.62 9.2,-45.51 -0.16,-0.89 -16.61,-3.76 -16.61,-3.76 z"
     style="fill:#707070;stroke:#263238;stroke-linecap:round;stroke-linejoin:round"
     id="path1177" />
  <polygon
     points="282.45,201.37 287.12,205.38 278.38,233.86 281.16,178.54 285.45,179.71 287.43,198.59 "
     style="fill:#707070;stroke:#263238;stroke-linecap:round;stroke-linejoin:round"
     id="polygon1179" />
  <path
     d="m 281.18,141.77 a 4.29,4.29 0 0 0 -0.15,-0.56 c -0.35,-1.08 -1.39,-3.25 -4,-2 -3.37,1.6 -5.28,5.23 -7.79,5.68 a 22.48,22.48 0 0 1 -3.18,0.43 c 0,0 -3.85,8.43 -5.72,9.89 a 11.27,11.27 0 0 1 -4.37,1.91 c 0,0 0.54,5.85 2.19,6.72 a 3.53,3.53 0 0 0 3.34,-0.26 c 0,0 4.72,5.77 7.86,7.33 3.14,1.56 6.63,2 8.48,1 1.85,-1 7.16,-7 7.23,-10.36 0.07,-3.36 -1.42,-11.71 -1.69,-15 a 6.41,6.41 0 0 0 -2.2,-4.78 z"
     style="fill:#d9d9d9;stroke:#263238;stroke-linecap:round;stroke-linejoin:round"
     id="path1181" />
  <path
     d="m 270.39,139 c 0,0 0.49,0.34 -0.2,1.5 a 11.22,11.22 0 0 1 -2.05,2.29 c 0,0 3.34,-0.26 4.73,-2.74 1.39,-2.48 -0.44,-2.8 -2.48,-1.05 z"
     style="fill:#ffffff"
     id="path1183" />
  <path
     d="m 271.29,150.81 c 0.15,0.86 -0.13,1.63 -0.63,1.72 -0.5,0.09 -1,-0.54 -1.17,-1.4 -0.17,-0.86 0.13,-1.63 0.63,-1.72 0.5,-0.09 1.02,0.59 1.17,1.4 z"
     style="fill:#263238"
     id="path1185" />
  <path
     d="m 279.83,149.66 c 0.15,0.86 -0.14,1.63 -0.64,1.72 -0.5,0.09 -1,-0.55 -1.17,-1.41 -0.17,-0.86 0.13,-1.63 0.63,-1.72 0.5,-0.09 1.02,0.54 1.18,1.41 z"
     style="fill:#263238"
     id="path1187" />
  <line
     x1="267.53"
     y1="148.16"
     x2="272.39001"
     y2="147.09"
     style="fill:none;stroke:#263238;stroke-linecap:round;stroke-linejoin:round"
     id="line1189" />
  <path
     d="m 276.59,145.68 c 0,0 1.56,-2.64 3.71,-1.93"
     style="fill:none;stroke:#263238;stroke-linecap:round;stroke-linejoin:round"
     id="path1191" />
  <path
     d="m 276.45,160.19 c 0,0 -5.53,1.05 -7,-2.15"
     style="fill:none;stroke:#263238;stroke-linecap:round;stroke-linejoin:round"
     id="path1193" />
  <path
     d="m 277.3,152.65 c 0,0 0.89,3.1 -1.92,3.4"
     style="fill:none;stroke:#263238;stroke-linecap:round;stroke-linejoin:round"
     id="path1195" />
  <path
     d="m 300.72,237.2 c 0,0 -8.38,6.28 -8.41,7.89 -0.03,1.61 1.53,4 2.05,4.52 0.52,0.52 2.11,2 2.11,2 0,0 4.32,-1 4.18,-2.78 C 300.51,247.05 300,247 300,247 l 3.53,-6 z"
     style="fill:#d9d9d9;stroke:#263238;stroke-linecap:round;stroke-linejoin:round"
     id="path1197" />
  <line
     x1="299.97"
     y1="247.03999"
     x2="297.95999"
     y2="248.97"
     style="fill:none;stroke:#263238;stroke-linecap:round;stroke-linejoin:round"
     id="line1199" />
  <path
     d="m 293.14,196.9 20.54,20.68 -14.21,19.06 4.55,5.29 c 0,0 22.72,-23.54 22.76,-25.51 0.04,-1.97 -25.31,-32.07 -26.9,-33.18 -1.59,-1.11 -5.16,-1.73 -5.16,-1.73"
     style="fill:#707070;stroke:#263238;stroke-linecap:round;stroke-linejoin:round"
     id="path1201" />
  <path
     d="m 245.37,236.25 c 0,0 8.94,5.44 9.13,7 0.19,1.56 -1.13,4.11 -1.6,4.7 -0.47,0.59 -1.9,2.25 -1.9,2.25 0,0 -4.39,-0.56 -4.43,-2.36 -0.04,-1.8 0.5,-1.86 0.5,-1.86 L 243,240.33 Z"
     style="fill:#d9d9d9;stroke:#263238;stroke-linecap:round;stroke-linejoin:round"
     id="path1203" />
  <line
     x1="247.06"
     y1="245.98"
     x2="249.25"
     y2="247.7"
     style="fill:none;stroke:#263238;stroke-linecap:round;stroke-linejoin:round"
     id="line1205" />
  <path
     d="m 252.06,198.72 -20.65,18.92 15.14,17.93 -4,5.71 c 0,0 -24.06,-21.56 -24.29,-23.52 -0.23,-1.96 26,-31.93 27.65,-33 1.65,-1.07 5.23,-1.5 5.23,-1.5"
     style="fill:#707070;stroke:#263238;stroke-linecap:round;stroke-linejoin:round"
     id="path1207" />
  <path
     d="m 262.77,188.88 c 0,0 2.92,-7.32 2.51,-9.64 -0.41,-2.32 -4.35,-1.71 -6.68,-0.83 -2.33,0.88 -5.63,4.27 -5.63,4.27 0,0 6.24,-0.34 7.17,-0.78 0.93,-0.44 2.42,6.1 2.63,6.98 z"
     style="fill:#f6ae2d;stroke:#263238;stroke-linecap:round;stroke-linejoin:round;fill-opacity:1"
     id="path1209" />
  <path
     d="m 278.84,178.31 1.67,11.87 c 0,0 1.72,-5 3.85,-7.54 a 12.61,12.61 0 0 1 3.53,-3.15 c 0,0 -4.96,-2.07 -9.05,-1.18 z"
     style="fill:#f6ae2d;stroke:#263238;stroke-linecap:round;stroke-linejoin:round;fill-opacity:1"
     id="path1211" />
</svg>
