<?xml version="1.0" encoding="UTF-8" standalone="no"?>
<svg
   xmlns:dc="http://purl.org/dc/elements/1.1/"
   xmlns:cc="http://creativecommons.org/ns#"
   xmlns:rdf="http://www.w3.org/1999/02/22-rdf-syntax-ns#"
   xmlns:svg="http://www.w3.org/2000/svg"
   xmlns="http://www.w3.org/2000/svg"
   viewBox="0 0 206.33101 149.44495"
   version="1.1"
   id="svg28"
   width="206.33101"
   height="149.44495">
  <metadata
     id="metadata34">
    <rdf:RDF>
      <cc:Work
         rdf:about="">
        <dc:format>image/svg+xml</dc:format>
        <dc:type
           rdf:resource="http://purl.org/dc/dcmitype/StillImage" />
        <dc:title>Hodi Colour Options3ii</dc:title>
      </cc:Work>
    </rdf:RDF>
  </metadata>
  <defs
     id="defs32" />
  <title
     id="title10">Hodi Colour Options3ii</title>
  <path
     d="m 89.536,99.092942 c 4.811,0 8.875,3.764998 8.875,8.220998 v 15.167 c 0,4.457 -4.064,8.221 -8.875,8.221 -4.811,0 -8.872,-3.764 -8.872,-8.221 v -15.167 c 0,-4.456 4.064,-8.220998 8.874,-8.220998 m 0,-18.743 v 0 c -16.008,0 -29.106,12.134 -29.106,26.963998 v 15.167 c 0,14.831 13.1,26.964 29.106,26.964 v 0 c 16.009,0 29.106,-12.133 29.106,-26.964 v -15.167 c 0,-14.829998 -13.1,-26.963998 -29.106,-26.963998 z"
     fill="#3fc4b6"
     id="path14" />
  <path
     d="m 178.102,51.253942 a 5.1,5.1 0 0 0 -5.1,-5.1 h -9.255 a 5.1,5.1 0 0 0 -5.1,5.1 v 26.618 H 150.13 A 28.013,28.013 0 0 0 122.2,105.80294 v 15.711 a 28.013,28.013 0 0 0 27.93,27.931 h 20.574 a 7.326,7.326 0 0 0 7.326,-7.326 v -19.22 a 5.069,5.069 0 0 0 0.075,-0.744 z m -19.49,70.663998 v 8.113 h -8.484 a 8.63,8.63 0 0 1 -8.516,-8.516 v -15.712 a 8.629,8.629 0 0 1 8.515,-8.515998 h 8.485 v 8.111998 0.221 q 0.008,0.349 0.027,0.7 v 14.687 c -0.013,0.233 -0.022,0.463 -0.027,0.695 z"
     fill="#3fc4b6"
     id="path16" />
  <path
     d="m 50.877,63.330942 h -9.255 a 5.1,5.1 0 0 0 -5.1,5.1 v 25.319 H 19.455 v -25.319 a 5.1,5.1 0 0 0 -5.1,-5.1 H 5.1 a 5.1,5.1 0 0 0 -5.1,5.1 v 75.913998 a 5.1,5.1 0 0 0 5.1,5.1 h 9.255 a 5.1,5.1 0 0 0 5.1,-5.1 v -31.138 h 17.066 v 31.137 a 5.1,5.1 0 0 0 5.1,5.1 h 9.255 a 5.1,5.1 0 0 0 5.1,-5.1 V 68.430942 a 5.1,5.1 0 0 0 -5.099,-5.1 z"
     fill="#3fc4b6"
     id="path18" />
  <rect
     x="186.87302"
     y="90.015953"
     width="19.458"
     height="59.429001"
     rx="3.5079999"
     ry="3.5079999"
     fill="#3fc4b6"
     id="rect20" />
  <rect
     x="186.87302"
     y="60.89193"
     width="19.458"
     height="19.458"
     rx="3.5079999"
     ry="3.5079999"
     fill="#3fc4b6"
     id="rect22" />
  <path
     d="m 139.741,25.422942 a 20.9,20.9 0 0 0 -13.5,-6.076 c 0,-0.021 0,-0.044 0,-0.065 -0.23,0 -0.46,0.016 -0.691,0.029 -0.186,-0.006 -0.372,-0.028 -0.559,-0.029 a 21,21 0 0 0 -41.861,0.022 21.013,21.013 0 1 0 21.149,25.187 21.022,21.022 0 1 0 35.462,-19.068 z m -11.311,18.415 a 5.019,5.019 0 0 1 -7.69,-6.386 l -13.547,-12.521 a 4.986,4.986 0 0 1 -6.229,0.036 l -13.165,12.441 a 5.063,5.063 0 1 1 -1.008,-1.048 l 13.165,-12.44 a 5.014,5.014 0 1 1 8.237,-0.044 l 13.547,12.517 a 5.009,5.009 0 0 1 6.69,7.441 z"
     fill="#3fc4b6"
     id="path24" />
</svg>
