<?xml version="1.0" encoding="UTF-8" standalone="no"?>
<svg
   xmlns:dc="http://purl.org/dc/elements/1.1/"
   xmlns:cc="http://creativecommons.org/ns#"
   xmlns:rdf="http://www.w3.org/1999/02/22-rdf-syntax-ns#"
   xmlns:svg="http://www.w3.org/2000/svg"
   xmlns="http://www.w3.org/2000/svg"
   xmlns:sodipodi="http://sodipodi.sourceforge.net/DTD/sodipodi-0.dtd"
   xmlns:inkscape="http://www.inkscape.org/namespaces/inkscape"
   viewBox="0 0 387.78 351.22568"
   version="1.1"
   id="svg251"
   sodipodi:docname="Powerful-rafiki.svg"
   width="387.78"
   height="351.22568"
   inkscape:version="1.0.2 (e86c8708, 2021-01-15)">
  <metadata
     id="metadata257">
    <rdf:RDF>
      <cc:Work
         rdf:about="">
        <dc:format>image/svg+xml</dc:format>
        <dc:type
           rdf:resource="http://purl.org/dc/dcmitype/StillImage" />
      </cc:Work>
    </rdf:RDF>
  </metadata>
  <defs
     id="defs255" />
  <sodipodi:namedview
     pagecolor="#ffffff"
     bordercolor="#666666"
     borderopacity="1"
     objecttolerance="10"
     gridtolerance="10"
     guidetolerance="10"
     inkscape:pageopacity="0"
     inkscape:pageshadow="2"
     inkscape:window-width="1340"
     inkscape:window-height="742"
     id="namedview253"
     showgrid="false"
     inkscape:zoom="1.334"
     inkscape:cx="118.92748"
     inkscape:cy="224.6402"
     inkscape:window-x="0"
     inkscape:window-y="25"
     inkscape:window-maximized="0"
     inkscape:current-layer="svg251" />
  <g
     id="freepik--background-simple--inject-11"
     transform="translate(-56.110001,-76.334313)"
     style="fill:#8f661b;fill-opacity:0.51821864">
    <path
       d="m 82.27,178.19 c 5.36,38.77 39.33,54.92 90.89,70.69 59.81,18.31 50.71,36.06 76.8,69.75 10.37,13.4 27,29.08 50.49,31.85 20.67,2.44 37.67,-5.33 50,-13 16.53,-10.3 28.63,-23.4 38.13,-37.32 19.85,-29.08 26.85,-69 -4.14,-104.78 -10.27,-11.86 -25.06,-22.45 -43.31,-29.26 -14.79,-5.52 -29.53,-7.79 -44.89,-9.47 -11.77,-1.28 -24,-2.84 -35,-7.34 -12.86,-5.24 -17.51,-12.22 -20.6,-20.6 -3.14,-8.53 -6,-16.46 -13.52,-24.65 C 170.66,42.35 76.54,136.73 82.27,178.19 Z"
       style="fill:#8f661b;fill-opacity:0.51821864"
       id="path87" />
    <path
       d="m 82.27,178.19 c 5.36,38.77 39.33,54.92 90.89,70.69 59.81,18.31 50.71,36.06 76.8,69.75 10.37,13.4 27,29.08 50.49,31.85 20.67,2.44 37.67,-5.33 50,-13 16.53,-10.3 28.63,-23.4 38.13,-37.32 19.85,-29.08 26.85,-69 -4.14,-104.78 -10.27,-11.86 -25.06,-22.45 -43.31,-29.26 -14.79,-5.52 -29.53,-7.79 -44.89,-9.47 -11.77,-1.28 -24,-2.84 -35,-7.34 -12.86,-5.24 -17.51,-12.22 -20.6,-20.6 -3.14,-8.53 -6,-16.46 -13.52,-24.65 C 170.66,42.35 76.54,136.73 82.27,178.19 Z"
       style="opacity:0.9;fill:#8f661b;fill-opacity:0.51821864"
       id="path89" />
  </g>
  <g
     id="freepik--Shadow--inject-11"
     transform="translate(-56.110001,-76.334313)"
     style="fill:#8f661b;fill-opacity:0.52226722">
    <ellipse
       id="freepik--path--inject-11"
       cx="250"
       cy="416.23999"
       rx="193.89"
       ry="11.32"
       style="fill:#8f661b;fill-opacity:0.52226722" />
  </g>
  <g
     id="freepik--Character--inject-11"
     transform="translate(-56.110001,-76.334313)">
    <path
       d="m 201.43,145.22 c 15.66,0.65 48.24,17.25 69.35,61.37 21.11,44.12 67.94,35.17 107.33,39.55 38.58,4.28 63.84,24.76 65.78,67.42 -56.89,-17.36 -70.22,27.65 -107.67,51.19 -52.09,32.75 -129.69,3.37 -129.69,3.37 0,0 40.52,-23.24 -16.05,-77.37 C 145.85,248 194.94,202.83 178.56,178 c -16.38,-24.83 22.87,-32.78 22.87,-32.78 z"
       style="fill:#320a31"
       id="path94" />
    <path
       d="m 201.43,145.22 c 15.66,0.65 48.24,17.25 69.35,61.37 21.11,44.12 67.94,35.17 107.33,39.55 38.58,4.28 63.84,24.76 65.78,67.42 -56.89,-17.36 -70.22,27.65 -107.67,51.19 -52.09,32.75 -129.69,3.37 -129.69,3.37 0,0 40.52,-23.24 -16.05,-77.37 C 145.85,248 194.94,202.83 178.56,178 c -16.38,-24.83 22.87,-32.78 22.87,-32.78 z"
       style="opacity:0.2"
       id="path96" />
    <path
       d="m 378.38,243.65 c -8,-0.89 -16.43,-1.24 -24.57,-1.57 v -1 c 8.16,0.33 16.59,0.68 24.65,1.58 z m -31.53,-1.88 c -1.9,-0.08 -3.79,-0.18 -5.66,-0.29 l 0.06,-1 c 1.87,0.11 3.75,0.21 5.65,0.3 z"
       style="fill:#320a31"
       id="path98" />
    <path
       d="m 201.43,145.22 c 0,0 36.78,20.67 49.95,55.22 21.82,57.24 43.68,91.36 98.39,82.09 54.71,-9.27 81,-10.25 94.12,31 -1.94,-42.66 -27.2,-63.14 -65.78,-67.42 -39.39,-4.38 -86.23,4.56 -107.33,-39.55 -21.1,-44.11 -53.69,-60.72 -69.35,-61.37"
       style="opacity:0.5;fill:#320a31"
       id="path100" />
    <path
       d="m 219,88.28 c 1,-1.46 0.56,-6.09 -2.72,-9.37 -3.28,-3.28 -8.47,-1.32 -10.61,0.72 -0.87,-2.65 -8.26,-5.1 -14,-1.45 -5.74,3.65 -1.67,8.44 -1.67,8.44 0,0 -1.7,-3.75 -5.77,-1.15 -4.07,2.6 -4.51,13.82 -0.44,13.2 9,-1.38 18.44,15.71 18.44,15.71 -4.18,10.32 5.49,5.52 5.49,5.52 0,0 5.51,4 9.56,0 4.69,-4.72 1.66,-9.29 1.66,-9.29 0,0 4.57,0 7.47,-6.7 C 230.16,95.11 225,85 219,88.28 Z"
       style="fill:#263238"
       id="path102" />
    <path
       d="m 172.63,154.61 c -0.21,0.51 -0.35,0.84 -0.53,1.22 -0.18,0.38 -0.34,0.73 -0.51,1.09 -0.35,0.71 -0.73,1.39 -1.11,2.07 -0.76,1.36 -1.56,2.68 -2.42,4 a 67.52,67.52 0 0 1 -5.67,7.27 64.58,64.58 0 0 1 -6.66,6.36 c -1.21,0.94 -2.41,1.94 -3.68,2.76 l -1.87,1.28 -0.48,0.32 -0.59,0.37 c -0.41,0.24 -0.84,0.49 -1.38,0.75 a 8.15,8.15 0 0 1 -2.25,0.69 5.42,5.42 0 0 1 -2.29,-0.15 5,5 0 0 1 -2.68,-1.9 5.28,5.28 0 0 1 -0.89,-2.13 7.29,7.29 0 0 1 -0.11,-1.36 9.23,9.23 0 0 1 0.23,-1.81 24.33,24.33 0 0 1 1.73,-4.83 65.37,65.37 0 0 1 4.44,-7.89 87.36,87.36 0 0 1 5.24,-7.23 c 1,-1.16 2,-2.28 3.1,-3.38 a 23.92,23.92 0 0 1 1.8,-1.62 10.06,10.06 0 0 1 2.51,-1.51 l 1.91,4.33 a 8.14,8.14 0 0 0 -1,1 18.09,18.09 0 0 0 -1.19,1.45 c -0.78,1 -1.52,2.17 -2.24,3.33 a 81.26,81.26 0 0 0 -4,7.19 71.38,71.38 0 0 0 -3.28,7.41 17,17 0 0 0 -0.94,3.31 0.77,0.77 0 0 0 0,0.32 0.64,0.64 0 0 0 0,-0.29 2.81,2.81 0 0 0 -0.49,-1.14 3.48,3.48 0 0 0 -1.83,-1.3 2.93,2.93 0 0 0 -1.22,-0.11 c -0.38,0.06 -0.31,0.06 -0.23,0 0.44,-0.23 1.77,-1.31 2.77,-2.08 0.55,-0.41 1.05,-0.84 1.54,-1.28 l 1.5,-1.3 a 74.15,74.15 0 0 0 5.49,-5.72 61.94,61.94 0 0 0 4.71,-6.37 c 0.74,-1.09 1.42,-2.22 2.06,-3.36 0.32,-0.56 0.63,-1.14 0.92,-1.7 0.15,-0.29 0.3,-0.57 0.43,-0.84 l 0.35,-0.73 z"
       style="fill:#7f3e3b"
       id="path104" />
    <path
       d="m 157.14,162.3 9,8.38 c 0,0 11.27,-6.55 14,-10.66 2.73,-4.11 4.67,-6.62 1.73,-11.32 -2.94,-4.7 -9.63,-5.22 -15.71,-1 -6.08,4.22 -4.77,5.38 -9.02,14.6 z"
       style="fill:#320a31"
       id="path106" />
    <path
       d="m 160.64,159.58 c -1.48,-0.8 -2.85,-0.38 -4.17,0.8 -1.32,1.18 -2.35,2.2 -0.6,3.53 a 81.29,81.29 0 0 1 7.91,8.12 c 0.57,0.87 4.41,-1.13 5,-2.46 0.59,-1.33 -6.18,-8.94 -8.14,-9.99 z"
       style="fill:#320a31"
       id="path108" />
    <path
       d="m 160.64,159.58 c -1.48,-0.8 -2.85,-0.38 -4.17,0.8 -1.32,1.18 -2.35,2.2 -0.6,3.53 a 81.29,81.29 0 0 1 7.91,8.12 c 0.57,0.87 4.41,-1.13 5,-2.46 0.59,-1.33 -6.18,-8.94 -8.14,-9.99 z"
       style="opacity:0.3;fill:#ffffff"
       id="path110" />
    <path
       d="m 160.71,158.06 c 0.35,8.07 1.74,21.68 5.47,44.64 h 37.93 c -0.57,-13.7 -1.23,-22.85 3.79,-46.89 a 9.57,9.57 0 0 0 -8.42,-11.49 c -1.51,-0.16 -3.11,-0.28 -4.76,-0.36 a 120.42,120.42 0 0 0 -17.21,0 c -1.86,0.17 -3.79,0.4 -5.62,0.66 a 13,13 0 0 0 -11.18,13.44 z"
       style="fill:#320a31"
       id="path112" />
    <path
       d="m 174,158.86 -6.12,5.36 c 0.32,6.09 11.3,7.25 17.23,7 5.93,-0.25 12.71,-2 16.19,-5.34 3.48,-3.34 3.48,-6.44 2.37,-11.73 -1.11,-5.29 -6.35,-6.92 -10.66,-3.56 -4.31,3.36 -12.62,6.33 -19.01,8.27 z"
       style="opacity:0.2"
       id="path114" />
    <path
       d="m 193,124.57 c -1.09,5.54 -2.17,15.69 1.7,19.39 a 120.7,120.7 0 0 0 -13.7,4.95 5.88,5.88 0 0 1 -3.52,-4.95 c 6.17,-1.48 6,-6.06 4.94,-10.37 z"
       style="fill:#7f3e3b"
       id="path116" />
    <path
       d="m 181,148.91 a 6.49,6.49 0 0 0 3.6,-3.81 l 1.05,2.81 z"
       style="fill:#263238"
       id="path118" />
    <path
       d="m 184.63,145.1 a 9.82,9.82 0 0 1 -0.45,5 c 3.64,-0.07 13.15,-2.49 13.59,-6.26 a 22.42,22.42 0 0 1 -3.49,-2.33 31.76,31.76 0 0 1 -9.65,3.59 z"
       style="fill:#ffffff"
       id="path120" />
    <path
       d="m 181,148.91 a 4.13,4.13 0 0 1 -0.24,-4 l -3.8,2.23 z"
       style="fill:#263238"
       id="path122" />
    <path
       d="m 180.79,144.89 c 0,0 -3.26,2.38 -2.29,5.19 -3.64,-0.07 -6,-3 -5.34,-5.89 0.88,-0.89 4.63,-0.86 4.63,-0.86 0,0 -0.28,0.67 3,1.56 z"
       style="fill:#ffffff"
       id="path124" />
    <path
       d="m 188.71,128.25 -6.26,5.34 a 17.41,17.41 0 0 1 0.53,3 c 2.36,-0.34 5.61,-2.93 5.86,-5.4 a 8.42,8.42 0 0 0 -0.13,-2.94 z"
       style="opacity:0.2"
       id="path126" />
    <path
       d="m 175.57,102.71 c -2.71,3.25 -0.25,12.2 3.89,6.83 4.14,-5.37 -1.53,-9.66 -3.89,-6.83 z"
       style="fill:#263238"
       id="path128" />
    <path
       d="m 198.86,114.41 c -2.16,9 -2.89,12.86 -8.22,16.74 -8,5.83 -18.41,1.23 -18.93,-8.24 -0.47,-8.52 3.14,-21.82 12.53,-23.9 9.24,-2.01 16.76,6.38 14.62,15.4 z"
       style="fill:#7f3e3b"
       id="path130" />
    <path
       d="m 179.43,99.31 c -4.43,1.41 -2.83,4.89 1.78,4.42 0,0 4,3.44 12.2,1.93 -3.11,1.79 -2.27,5.77 0.51,6.13 -2.26,2.67 1.18,3.76 -0.47,6 -1.65,2.24 3,1.08 4.06,0 2.3,-0.57 -2.21,5.6 -2.59,8.87 5.59,-1.71 5.09,-4.76 7.77,-7.39 2.68,-2.63 4.32,-9.19 2.15,-14.22 a 17.63,17.63 0 0 0 -10.92,-9.43 c -3.71,-0.97 -15.39,-2.34 -14.49,3.69 z"
       style="fill:#263238"
       id="path132" />
    <path
       d="m 251.33,402.27 c 0.16,4.44 -0.12,11.45 -0.12,11.45 h -1.17 a 100.11,100.11 0 0 0 -1.3,-10.95 z"
       style="fill:#263238"
       id="path134" />
    <path
       d="m 166.18,202.7 c 0,0 3.21,70.3 3.82,98.78 0.64,29.62 0.92,98.78 0.92,98.78 h 7.48 c 0,0 11.92,-57.48 8.39,-98.78 5.34,-31.71 8.94,-98.78 8.94,-98.78 z"
       style="fill:#7f3e3b"
       id="path136" />
    <path
       d="m 166.18,202.7 c 0,0 3.21,70.3 3.82,98.78 0.64,29.62 0.92,98.78 0.92,98.78 h 7.48 c 0,0 11.92,-57.48 8.39,-98.78 5.34,-31.71 8.94,-98.78 8.94,-98.78 z"
       style="opacity:0.8;fill:#263238"
       id="path138" />
    <path
       d="m 163.47,199.43 1.08,3.27 c 0,0 -3.05,22.47 1.63,43.81 6.83,3.76 27.92,4.26 27.92,4.26 l -5.21,-47.5 0.94,-3.84 z"
       style="fill:#263238"
       id="path140" />
    <path
       d="m 176.1,202.7 c 0,0 27,73.63 37.74,101.16 11.27,28.92 29.77,94.26 30.1,96.4 h 6.46 c 0,0 -7.4,-75.48 -20.85,-101.16 -4.07,-32.16 -25.44,-96.4 -25.44,-96.4 z"
       style="fill:#7f3e3b"
       id="path142" />
    <path
       d="m 176.1,202.7 c 0,0 27,73.63 37.74,101.16 11.27,28.92 29.77,94.26 30.1,96.4 h 6.46 c 0,0 -7.4,-75.48 -20.85,-101.16 -4.07,-32.16 -25.44,-96.4 -25.44,-96.4 z"
       style="opacity:0.8;fill:#263238"
       id="path144" />
    <path
       d="m 205.86,199.43 -0.09,3.27 c 0,0 10.67,8.41 14.63,42.54 -4.7,1 -26.93,8.67 -26.93,8.67 -13.17,-16.89 -19,-33.76 -19.9,-50.64 v -3.84 z"
       style="fill:#263238"
       id="path146" />
    <path
       d="m 250.06,394.46 c 1.22,1.4 2.09,10.53 0.25,13.77 -1.84,3.24 0,8 -6.22,8 -6.22,0 -6.83,-1.36 -5.26,-4.25 1.57,-2.89 3.77,-12.58 2.68,-17.69 -0.51,-2.38 3.91,-2.38 8.55,0.17 z"
       style="fill:#263238"
       id="path148" />
    <path
       d="m 186.85,114.5 c -0.13,0.75 -0.63,1.28 -1.12,1.19 -0.49,-0.09 -0.77,-0.76 -0.64,-1.5 0.13,-0.74 0.63,-1.27 1.12,-1.18 0.49,0.09 0.79,0.75 0.64,1.49 z"
       style="fill:#263238"
       id="path150" />
    <path
       d="m 177.7,113 c -0.13,0.74 -0.63,1.27 -1.11,1.19 -0.48,-0.08 -0.77,-0.76 -0.64,-1.5 0.13,-0.74 0.63,-1.28 1.11,-1.19 0.48,0.09 0.78,0.78 0.64,1.5 z"
       style="fill:#263238"
       id="path152" />
    <path
       d="m 177.27,111.6 -1.69,-0.83 c 0,0 0.67,1.55 1.69,0.83 z"
       style="fill:#263238"
       id="path154" />
    <path
       d="m 180,114.69 a 19.91,19.91 0 0 1 -3.48,4.26 3.23,3.23 0 0 0 2.56,1 z"
       style="fill:#630f0f"
       id="path156" />
    <path
       d="m 182.88,123.41 a 7.16,7.16 0 0 1 -1.26,-0.11 0.2236068,0.2236068 0 0 1 0.08,-0.44 6,6 0 0 0 5.2,-1.45 0.22,0.22 0 0 1 0.31,0 0.23,0.23 0 0 1 0,0.32 6.24,6.24 0 0 1 -4.33,1.68 z"
       style="fill:#263238"
       id="path158" />
    <path
       d="m 199.57,120.13 a 5.51,5.51 0 0 1 -3.39,3 c -1.91,0.53 -2.85,-1.56 -2.31,-3.68 0.49,-1.91 2.06,-4.49 4,-4.07 1.94,0.42 2.58,2.88 1.7,4.75 z"
       style="fill:#7f3e3b"
       id="path160" />
    <path
       d="m 189.59,109 a 0.42,0.42 0 0 1 -0.34,-0.06 3.55,3.55 0 0 0 -3.17,-0.4 0.44070965,0.44070965 0 1 1 -0.37,-0.8 4.36,4.36 0 0 1 4,0.46 0.44,0.44 0 0 1 0.14,0.61 0.47,0.47 0 0 1 -0.26,0.19 z"
       style="fill:#263238"
       id="path162" />
    <path
       d="m 174.3,107.2 a 0.42,0.42 0 0 1 -0.11,-0.31 0.44,0.44 0 0 1 0.45,-0.43 4.36,4.36 0 0 1 3.58,1.86 0.44,0.44 0 1 1 -0.75,0.46 3.5,3.5 0 0 0 -2.85,-1.43 0.46,0.46 0 0 1 -0.32,-0.15 z"
       style="fill:#263238"
       id="path164" />
    <path
       d="m 186.41,113.08 -1.69,-0.82 c 0,0 0.67,1.55 1.69,0.82 z"
       style="fill:#263238"
       id="path166" />
    <path
       d="m 189.07,163.1 c -1.78,0.07 -3.35,0.07 -5,0 -1.65,-0.07 -3.27,-0.09 -4.91,-0.18 -3.27,-0.19 -6.54,-0.54 -9.81,-1 a 87.51,87.51 0 0 1 -9.78,-1.92 61,61 0 0 1 -9.67,-3.3 c -0.39,-0.17 -0.79,-0.37 -1.18,-0.55 l -0.59,-0.28 c -0.19,-0.1 -0.49,-0.26 -0.71,-0.4 a 6.57,6.57 0 0 1 -0.66,-0.48 7.51,7.51 0 0 1 -1.74,-2.1 10.76,10.76 0 0 1 -0.81,-1.88 19.73,19.73 0 0 1 -0.71,-5.94 60.84,60.84 0 0 1 1.1,-10.07 136.74,136.74 0 0 1 5,-18.73 l 4.57,1.2 c -0.48,3.06 -1,6.18 -1.36,9.27 -0.36,3.09 -0.8,6.18 -1,9.24 a 62.21,62.21 0 0 0 -0.23,8.88 12.17,12.17 0 0 0 0.61,3.43 1.27,1.27 0 0 0 0.15,0.29 c 0,0 0,-0.11 -0.22,-0.29 a 1.72,1.72 0 0 0 -0.37,-0.25 l 0.5,0.21 c 0.33,0.13 0.65,0.27 1,0.39 a 76.07,76.07 0 0 0 17.33,3.9 c 3,0.38 6.06,0.58 9.11,0.76 1.52,0.09 3,0.15 4.58,0.18 1.58,0.03 3.09,0.06 4.48,0 z"
       style="fill:#7f3e3b"
       id="path168" />
    <path
       d="m 167.05,152.64 1.16,12 c 0,0 22.33,7.26 33.92,1.17 4.36,-2.29 4.33,-4.39 4.83,-9.91 0.5,-5.52 -2.43,-9.5 -9.6,-7.66 -7.17,1.84 -11.91,2.11 -30.31,4.4 z"
       style="fill:#320a31"
       id="path170" />
    <path
       d="m 169.21,152.69 c -0.69,-1.53 -2,-2 -3.81,-1.88 -1.81,0.12 -3.2,0.33 -2.61,2.44 a 83.35,83.35 0 0 1 1.39,11.25 c -0.08,1 4.19,1.77 5.47,1.07 1.28,-0.7 0.48,-10.86 -0.44,-12.88 z"
       style="fill:#320a31"
       id="path172" />
    <path
       d="m 169.21,152.69 c -0.69,-1.53 -2,-2 -3.81,-1.88 -1.81,0.12 -3.2,0.33 -2.61,2.44 a 83.35,83.35 0 0 1 1.39,11.25 c -0.08,1 4.19,1.77 5.47,1.07 1.28,-0.7 0.48,-10.86 -0.44,-12.88 z"
       style="opacity:0.3;fill:#ffffff"
       id="path174" />
    <path
       d="m 162.6,147.84 -5.25,0.77 a 2,2 0 0 0 -1.71,2.13 v 0.47 a 2,2 0 0 0 1.94,1.86 l 5.77,0.17 a 2,2 0 0 0 1.92,-2.75 l -0.56,-1.41 a 2,2 0 0 0 -2.11,-1.24 z"
       style="fill:#7f3e3b"
       id="path176" />
    <path
       d="m 149.93,114.23 2.55,-6.32 7.3,8.34 c 0,0 -4.37,4.27 -8.86,4.91 l -0.61,-1.1 a 6.78,6.78 0 0 1 -0.38,-5.83 z"
       style="fill:#7f3e3b"
       id="path178" />
    <path
       d="m 159.86,108.24 2,3 a 3,3 0 0 1 -0.67,4 l -1.37,1.06 -7.3,-8.34 4.26,-0.94 a 3,3 0 0 1 3.08,1.22 z"
       style="fill:#7f3e3b"
       id="path180" />
    <path
       d="m 179.7,399.13 a 6.46,6.46 0 0 1 0.63,3.05 c -0.07,3.84 -0.49,14 -0.49,14 h -0.9 c 0,0 -0.2,-5 -0.64,-7.53 -0.44,-2.53 -1,-0.41 -2.55,2.22 -1.55,2.63 -5.55,5.17 -11.39,5.31 -6.85,0.16 -9.62,-0.14 -7.63,-1.8 1.99,-1.66 6.53,-2.73 6.53,-2.73 0,0 6.57,-9.15 6.66,-15.61 0.09,-6.92 8.12,0.1 9.83,-0.76 0.57,0.12 -0.34,3.27 -0.05,3.85 z"
       style="fill:#263238"
       id="path182" />
    <path
       d="m 202.05,119.92 c -0.88,-3.2 -6.61,-15.15 -12.12,-19.77 -5.51,-4.62 -7,-4.26 -7.75,-4.77 a 1.91,1.91 0 0 1 2.54,-1.58 c 1.5,-1.26 3.88,-0.61 4.95,-0.1 a 32.42,32.42 0 0 1 12.47,10.38 c 3.7,5.11 4.82,8.24 4.38,10.78 -0.44,2.54 -1.44,2.57 -1.44,2.57 0,0 0.63,2.69 -3.03,2.49 z"
       style="fill:#320a31"
       id="path184" />
    <path
       d="m 202,118 a 1.28,1.28 0 0 0 -0.74,-0.35 21.4,21.4 0 0 1 0.8,2.17 A 1.34,1.34 0 0 0 202,118 Z"
       style="fill:#ffffff"
       id="path186" />
    <path
       d="m 183,94 a 1.27,1.27 0 0 0 0.37,0.81 1.35,1.35 0 0 0 1.91,0 1.33,1.33 0 0 0 0.26,-1.51 3.38,3.38 0 0 0 -0.8,0.46 A 2,2 0 0 0 183,94 Z"
       style="fill:#ffffff"
       id="path188" />
    <path
       d="m 189.43,97.12 a 1.35,1.35 0 0 0 -1.91,0 1.32,1.32 0 0 0 -0.37,0.87 c 0.53,0.38 1.12,0.82 1.78,1.35 a 1.31,1.31 0 0 0 0.5,-0.31 1.35,1.35 0 0 0 0,-1.91 z"
       style="fill:#ffffff"
       id="path190" />
    <path
       d="m 193.61,101.3 a 1.35,1.35 0 0 0 -1.91,0 1.27,1.27 0 0 0 -0.23,0.34 c 0.54,0.58 1.09,1.2 1.62,1.88 a 1.39,1.39 0 0 0 0.52,-0.31 1.35,1.35 0 0 0 0,-1.91 z"
       style="fill:#ffffff"
       id="path192" />
    <circle
       cx="196.83"
       cy="106.43"
       r="1.35"
       style="fill:#ffffff"
       id="circle194" />
    <circle
       cx="201.00999"
       cy="110.6"
       r="1.35"
       style="fill:#ffffff"
       id="circle196" />
    <path
       d="m 204.23,113.82 a 1.350574,1.350574 0 0 0 1.91,1.91 1.71,1.71 0 0 0 0.29,-0.43 v -0.15 a 1.34,1.34 0 0 0 -2.23,-1.33 z"
       style="fill:#ffffff"
       id="path198" />
    <path
       d="m 191.7,94.85 a 1.3,1.3 0 0 0 0.83,0.38 l -0.95,-0.56 a 1.13,1.13 0 0 0 0.12,0.18 z"
       style="fill:#ffffff"
       id="path200" />
    <path
       d="m 195.87,99 a 1.34,1.34 0 0 0 1.82,0.06 c -0.69,-0.62 -1.36,-1.18 -2,-1.69 a 1.33,1.33 0 0 0 0.18,1.63 z"
       style="fill:#ffffff"
       id="path202" />
    <path
       d="m 200.05,103.21 a 1.33,1.33 0 0 0 1.59,0.21 c -0.55,-0.72 -1.1,-1.39 -1.66,-2 a 1.34,1.34 0 0 0 0.07,1.79 z"
       style="fill:#ffffff"
       id="path204" />
    <path
       d="m 204.23,107.38 a 0.71,0.71 0 0 0 0.18,0.12 c -0.16,-0.27 -0.36,-0.57 -0.54,-0.85 a 1.36,1.36 0 0 0 0.36,0.73 z"
       style="fill:#ffffff"
       id="path206" />
    <path
       d="m 197.78,109.65 a 1.32,1.32 0 0 0 -0.8,-0.37 c 0.37,0.63 0.73,1.25 1.07,1.88 a 1.34,1.34 0 0 0 -0.27,-1.51 z"
       style="fill:#ffffff"
       id="path208" />
    <path
       d="m 202,115.73 a 1.35,1.35 0 0 0 0,-1.91 1.36,1.36 0 0 0 -1.91,0 1.32,1.32 0 0 0 -0.32,0.56 c 0.28,0.58 0.55,1.13 0.79,1.65 a 1.34,1.34 0 0 0 1.44,-0.3 z"
       style="fill:#ffffff"
       id="path210" />
    <path
       d="m 204,119.63 a 1.93,1.93 0 0 0 1.07,-2 1.31,1.31 0 0 0 -1.07,2 z"
       style="fill:#ffffff"
       id="path212" />
    <path
       d="m 187.42,93.1 a 1.33,1.33 0 0 0 0.1,1.75 1.35,1.35 0 0 0 1.91,0 1.32,1.32 0 0 0 0.37,-1.09 l -0.13,-0.06 a 6.7,6.7 0 0 0 -2.25,-0.6 z"
       style="fill:#ffffff"
       id="path214" />
    <path
       d="m 193.61,99 a 1.35,1.35 0 1 0 -1.91,0 1.35,1.35 0 0 0 1.91,0 z"
       style="fill:#ffffff"
       id="path216" />
    <circle
       cx="196.83"
       cy="102.25"
       r="1.35"
       style="fill:#ffffff"
       id="circle218" />
    <circle
       cx="201.00999"
       cy="106.43"
       r="1.35"
       style="fill:#ffffff"
       id="circle220" />
    <path
       d="m 204.23,109.65 a 1.35,1.35 0 0 0 0,1.91 1.36,1.36 0 0 0 1.91,0 l 0.08,-0.13 a 15,15 0 0 0 -0.85,-2.14 1.32,1.32 0 0 0 -1.14,0.36 z"
       style="fill:#ffffff"
       id="path222" />
    <path
       d="m 189.67,93.71 a 5.47,5.47 0 0 0 -4.26,-0.33 c 0.83,1.86 3.41,3.26 5.38,3.55 a 8.29,8.29 0 0 0 1.22,-2 c -1.16,-0.68 -2.01,-1.07 -2.34,-1.22 z"
       style="opacity:0.4"
       id="path224" />
    <path
       d="m 202.14,104.08 a 32.72,32.72 0 0 0 -7.27,-7.3 19.91,19.91 0 0 0 -3.22,0.17 c 0,2.6 2.77,7.12 7.37,8.11 a 9.55,9.55 0 0 0 3.86,0.07 c -0.23,-0.34 -0.48,-0.69 -0.74,-1.05 z"
       style="opacity:0.4"
       id="path226" />
    <path
       d="m 190.79,96.92 c -2.38,-0.85 -5.42,-3.91 -4.52,-6.81 0.9,-2.9 4.33,-3.6 4.33,-3.6 0,0 -0.52,2.07 0.22,3.1 0.74,1.03 2,4.26 1.62,5.14 a 9.19,9.19 0 0 1 -1.65,2.17 z"
       style="fill:#320a31"
       id="path228" />
    <path
       d="m 189.68,99.5 c -0.52,-1.51 0.18,-5.11 3.23,-5.31 3.05,-0.2 2.09,1.32 2.09,1.32 z"
       style="fill:#320a31"
       id="path230" />
    <path
       d="m 191.87,98.15 c 0.78,2.48 4.82,5.93 9.51,5.47 a 8.55,8.55 0 0 0 6.55,-3.76 c 0,0 -3.31,0.21 -4.74,-0.67 -1.43,-0.88 -6.15,-2.57 -7.59,-2.36 a 17.77,17.77 0 0 0 -3.73,1.32 z"
       style="fill:#320a31"
       id="path232" />
    <path
       d="m 189.68,99.5 c 0.27,-1.57 3.18,-5.15 5.95,-3.85 2.77,1.3 1.45,2.12 0,2.76 a 22,22 0 0 1 -5.95,1.09 z"
       style="fill:#320a31"
       id="path234" />
    <path
       d="m 192.2,99.24 a 1.83,1.83 0 0 0 -2.54,-2 4.33,4.33 0 0 0 0,2.22 c 0,0 1.16,-0.02 2.54,-0.22 z"
       style="fill:#ffffff"
       id="path236" />
    <path
       d="m 198.24,101.39 a 1.83,1.83 0 0 0 -2.51,0.67 1.47,1.47 0 0 0 -0.1,0.22 10.29,10.29 0 0 0 3.43,1.26 1.84,1.84 0 0 0 -0.82,-2.15 z"
       style="fill:#ffffff"
       id="path238" />
    <path
       d="m 186.49,89.54 0.08,0.06 a 1.83,1.83 0 0 0 2.48,-2.52 5.35,5.35 0 0 0 -2.56,2.46 z"
       style="fill:#ffffff"
       id="path240" />
    <path
       d="m 206.82,101.2 a 6.75,6.75 0 0 0 1.11,-1.34 c 0,0 -0.65,0 -1.49,0 a 1.88,1.88 0 0 0 0.38,1.34 z"
       style="fill:#ffffff"
       id="path242" />
    <path
       d="m 190.52,94.4 a 1.83,1.83 0 1 0 -3.24,-0.15 9.06,9.06 0 0 0 0.64,0.75 l 0.1,0.07 a 1.82,1.82 0 0 0 2.5,-0.67 z"
       style="fill:#ffffff"
       id="path244" />
    <path
       d="m 195.69,95.68 a 1.83,1.83 0 1 0 1.76,2.74 1.82,1.82 0 0 0 0.19,-1.32 L 197.23,97 c -0.05,-0.38 -0.49,-0.81 -1.54,-1.32 z"
       style="fill:#ffffff"
       id="path246" />
    <path
       d="m 204.37,102.44 a 1.83,1.83 0 1 0 -2.5,0.66 1.88,1.88 0 0 0 1,0.25 c 0.26,-0.07 0.51,-0.15 0.74,-0.23 a 1.72,1.72 0 0 0 0.76,-0.68 z"
       style="fill:#ffffff"
       id="path248" />
  </g>
</svg>
